<mxfile host="app.diagrams.net" agent="Mozilla/5.0 (Windows NT 10.0; Win64; x64) AppleWebKit/537.36 (KHTML, like Gecko) Chrome/136.0.0.0 Safari/537.36" version="27.0.3">
  <diagram name="Страница — 1" id="PtERw0xOoVtdUdhSGjrE">
    <mxGraphModel dx="4074" dy="13" grid="1" gridSize="10" guides="1" tooltips="1" connect="1" arrows="1" fold="1" page="1" pageScale="1" pageWidth="827" pageHeight="1169" math="0" shadow="0">
      <root>
        <mxCell id="0" />
        <mxCell id="1" parent="0" />
        <mxCell id="Ziu-hq2vjKG-RK7n9dTh-4" style="edgeStyle=orthogonalEdgeStyle;rounded=0;orthogonalLoop=1;jettySize=auto;html=1;" edge="1" parent="1" source="Ziu-hq2vjKG-RK7n9dTh-2" target="Ziu-hq2vjKG-RK7n9dTh-3">
          <mxGeometry relative="1" as="geometry" />
        </mxCell>
        <mxCell id="Ziu-hq2vjKG-RK7n9dTh-2" value="Начало&lt;div&gt;Draw&lt;/div&gt;" style="rounded=1;whiteSpace=wrap;html=1;arcSize=50;" vertex="1" parent="1">
          <mxGeometry x="40" y="2360" width="160" height="40" as="geometry" />
        </mxCell>
        <mxCell id="Ziu-hq2vjKG-RK7n9dTh-7" style="edgeStyle=orthogonalEdgeStyle;rounded=0;orthogonalLoop=1;jettySize=auto;html=1;" edge="1" parent="1" source="Ziu-hq2vjKG-RK7n9dTh-3" target="Ziu-hq2vjKG-RK7n9dTh-5">
          <mxGeometry relative="1" as="geometry" />
        </mxCell>
        <mxCell id="Ziu-hq2vjKG-RK7n9dTh-3" value="angle = angle mod 4" style="rounded=0;whiteSpace=wrap;html=1;" vertex="1" parent="1">
          <mxGeometry x="40" y="2420" width="160" height="30" as="geometry" />
        </mxCell>
        <mxCell id="Ziu-hq2vjKG-RK7n9dTh-9" style="edgeStyle=orthogonalEdgeStyle;rounded=0;orthogonalLoop=1;jettySize=auto;html=1;" edge="1" parent="1" source="Ziu-hq2vjKG-RK7n9dTh-5" target="Ziu-hq2vjKG-RK7n9dTh-8">
          <mxGeometry relative="1" as="geometry" />
        </mxCell>
        <mxCell id="Ziu-hq2vjKG-RK7n9dTh-13" style="edgeStyle=orthogonalEdgeStyle;rounded=0;orthogonalLoop=1;jettySize=auto;html=1;" edge="1" parent="1" source="Ziu-hq2vjKG-RK7n9dTh-5" target="Ziu-hq2vjKG-RK7n9dTh-10">
          <mxGeometry relative="1" as="geometry">
            <Array as="points">
              <mxPoint x="120" y="2530" />
              <mxPoint x="300" y="2530" />
            </Array>
          </mxGeometry>
        </mxCell>
        <mxCell id="Ziu-hq2vjKG-RK7n9dTh-14" style="edgeStyle=orthogonalEdgeStyle;rounded=0;orthogonalLoop=1;jettySize=auto;html=1;" edge="1" parent="1" source="Ziu-hq2vjKG-RK7n9dTh-5" target="Ziu-hq2vjKG-RK7n9dTh-11">
          <mxGeometry relative="1" as="geometry">
            <Array as="points">
              <mxPoint x="120" y="2530" />
              <mxPoint x="480" y="2530" />
            </Array>
          </mxGeometry>
        </mxCell>
        <mxCell id="Ziu-hq2vjKG-RK7n9dTh-15" style="edgeStyle=orthogonalEdgeStyle;rounded=0;orthogonalLoop=1;jettySize=auto;html=1;" edge="1" parent="1" source="Ziu-hq2vjKG-RK7n9dTh-5" target="Ziu-hq2vjKG-RK7n9dTh-12">
          <mxGeometry relative="1" as="geometry">
            <Array as="points">
              <mxPoint x="120" y="2530" />
              <mxPoint x="660" y="2530" />
            </Array>
          </mxGeometry>
        </mxCell>
        <mxCell id="Ziu-hq2vjKG-RK7n9dTh-5" value="angle" style="rhombus;whiteSpace=wrap;html=1;" vertex="1" parent="1">
          <mxGeometry x="40" y="2470" width="160" height="40" as="geometry" />
        </mxCell>
        <mxCell id="Ziu-hq2vjKG-RK7n9dTh-21" style="edgeStyle=orthogonalEdgeStyle;rounded=0;orthogonalLoop=1;jettySize=auto;html=1;" edge="1" parent="1" source="Ziu-hq2vjKG-RK7n9dTh-8" target="Ziu-hq2vjKG-RK7n9dTh-20">
          <mxGeometry relative="1" as="geometry" />
        </mxCell>
        <mxCell id="Ziu-hq2vjKG-RK7n9dTh-8" value="LineRel(10, 0)" style="rounded=0;whiteSpace=wrap;html=1;" vertex="1" parent="1">
          <mxGeometry x="40" y="2560" width="160" height="30" as="geometry" />
        </mxCell>
        <mxCell id="Ziu-hq2vjKG-RK7n9dTh-10" value="LineRel(0, 10)" style="rounded=0;whiteSpace=wrap;html=1;" vertex="1" parent="1">
          <mxGeometry x="220" y="2560" width="160" height="30" as="geometry" />
        </mxCell>
        <mxCell id="Ziu-hq2vjKG-RK7n9dTh-11" value="LineRel(-10, 0)" style="rounded=0;whiteSpace=wrap;html=1;" vertex="1" parent="1">
          <mxGeometry x="400" y="2560" width="160" height="30" as="geometry" />
        </mxCell>
        <mxCell id="Ziu-hq2vjKG-RK7n9dTh-12" value="LineRel(0, -10)" style="rounded=0;whiteSpace=wrap;html=1;" vertex="1" parent="1">
          <mxGeometry x="580" y="2560" width="160" height="30" as="geometry" />
        </mxCell>
        <mxCell id="Ziu-hq2vjKG-RK7n9dTh-16" value="0" style="text;html=1;align=center;verticalAlign=middle;resizable=0;points=[];autosize=1;strokeColor=none;fillColor=none;" vertex="1" parent="1">
          <mxGeometry x="90" y="2530" width="30" height="30" as="geometry" />
        </mxCell>
        <mxCell id="Ziu-hq2vjKG-RK7n9dTh-17" value="1, -3" style="text;html=1;align=center;verticalAlign=middle;resizable=0;points=[];autosize=1;strokeColor=none;fillColor=none;" vertex="1" parent="1">
          <mxGeometry x="250" y="2530" width="50" height="30" as="geometry" />
        </mxCell>
        <mxCell id="Ziu-hq2vjKG-RK7n9dTh-18" value="2, -2" style="text;html=1;align=center;verticalAlign=middle;resizable=0;points=[];autosize=1;strokeColor=none;fillColor=none;" vertex="1" parent="1">
          <mxGeometry x="430" y="2530" width="50" height="30" as="geometry" />
        </mxCell>
        <mxCell id="Ziu-hq2vjKG-RK7n9dTh-19" value="3, -1" style="text;html=1;align=center;verticalAlign=middle;resizable=0;points=[];autosize=1;strokeColor=none;fillColor=none;" vertex="1" parent="1">
          <mxGeometry x="610" y="2530" width="50" height="30" as="geometry" />
        </mxCell>
        <mxCell id="Ziu-hq2vjKG-RK7n9dTh-20" value="Конец&lt;div&gt;Draw&lt;/div&gt;" style="rounded=1;whiteSpace=wrap;html=1;arcSize=50;" vertex="1" parent="1">
          <mxGeometry x="40" y="2630" width="160" height="40" as="geometry" />
        </mxCell>
        <mxCell id="Ziu-hq2vjKG-RK7n9dTh-22" value="" style="endArrow=none;html=1;rounded=0;" edge="1" parent="1">
          <mxGeometry width="50" height="50" relative="1" as="geometry">
            <mxPoint x="120" y="2610" as="sourcePoint" />
            <mxPoint x="660" y="2610" as="targetPoint" />
          </mxGeometry>
        </mxCell>
        <mxCell id="Ziu-hq2vjKG-RK7n9dTh-23" value="" style="endArrow=none;html=1;rounded=0;entryX=0.5;entryY=1;entryDx=0;entryDy=0;" edge="1" parent="1" target="Ziu-hq2vjKG-RK7n9dTh-10">
          <mxGeometry width="50" height="50" relative="1" as="geometry">
            <mxPoint x="300" y="2610" as="sourcePoint" />
            <mxPoint x="420" y="2570" as="targetPoint" />
          </mxGeometry>
        </mxCell>
        <mxCell id="Ziu-hq2vjKG-RK7n9dTh-24" value="" style="endArrow=none;html=1;rounded=0;entryX=0.5;entryY=1;entryDx=0;entryDy=0;" edge="1" parent="1">
          <mxGeometry width="50" height="50" relative="1" as="geometry">
            <mxPoint x="480" y="2610" as="sourcePoint" />
            <mxPoint x="480" y="2590" as="targetPoint" />
          </mxGeometry>
        </mxCell>
        <mxCell id="Ziu-hq2vjKG-RK7n9dTh-25" value="" style="endArrow=none;html=1;rounded=0;entryX=0.5;entryY=1;entryDx=0;entryDy=0;" edge="1" parent="1">
          <mxGeometry width="50" height="50" relative="1" as="geometry">
            <mxPoint x="659.63" y="2610" as="sourcePoint" />
            <mxPoint x="659.63" y="2590" as="targetPoint" />
          </mxGeometry>
        </mxCell>
        <mxCell id="Ziu-hq2vjKG-RK7n9dTh-28" style="edgeStyle=orthogonalEdgeStyle;rounded=0;orthogonalLoop=1;jettySize=auto;html=1;" edge="1" parent="1" source="Ziu-hq2vjKG-RK7n9dTh-26" target="Ziu-hq2vjKG-RK7n9dTh-27">
          <mxGeometry relative="1" as="geometry" />
        </mxCell>
        <mxCell id="Ziu-hq2vjKG-RK7n9dTh-26" value="Начало&lt;div&gt;Fractal&lt;/div&gt;" style="rounded=1;whiteSpace=wrap;html=1;arcSize=50;" vertex="1" parent="1">
          <mxGeometry x="40" y="2709.9999999999995" width="160" height="40" as="geometry" />
        </mxCell>
        <mxCell id="Ziu-hq2vjKG-RK7n9dTh-34" style="edgeStyle=orthogonalEdgeStyle;rounded=0;orthogonalLoop=1;jettySize=auto;html=1;" edge="1" parent="1" source="Ziu-hq2vjKG-RK7n9dTh-27" target="Ziu-hq2vjKG-RK7n9dTh-33">
          <mxGeometry relative="1" as="geometry" />
        </mxCell>
        <mxCell id="Ziu-hq2vjKG-RK7n9dTh-27" value="depth, turn" style="shape=parallelogram;perimeter=parallelogramPerimeter;whiteSpace=wrap;html=1;fixedSize=1;" vertex="1" parent="1">
          <mxGeometry x="40" y="2769.72" width="160" height="30" as="geometry" />
        </mxCell>
        <mxCell id="Ziu-hq2vjKG-RK7n9dTh-29" value="depth, turn - по значению" style="strokeWidth=1;html=1;shape=mxgraph.flowchart.annotation_1;align=left;pointerEvents=1;" vertex="1" parent="1">
          <mxGeometry x="230" y="2769.72" width="5" height="30" as="geometry" />
        </mxCell>
        <mxCell id="Ziu-hq2vjKG-RK7n9dTh-30" value="" style="endArrow=none;html=1;rounded=0;entryX=0;entryY=0.5;entryDx=0;entryDy=0;entryPerimeter=0;dashed=1;" edge="1" parent="1" target="Ziu-hq2vjKG-RK7n9dTh-29">
          <mxGeometry width="50" height="50" relative="1" as="geometry">
            <mxPoint x="190" y="2784.72" as="sourcePoint" />
            <mxPoint x="280" y="2774.72" as="targetPoint" />
          </mxGeometry>
        </mxCell>
        <mxCell id="Ziu-hq2vjKG-RK7n9dTh-31" value="angle - глобальная переменная" style="strokeWidth=1;html=1;shape=mxgraph.flowchart.annotation_1;align=left;pointerEvents=1;" vertex="1" parent="1">
          <mxGeometry x="230" y="2420" width="5" height="30" as="geometry" />
        </mxCell>
        <mxCell id="Ziu-hq2vjKG-RK7n9dTh-32" value="" style="endArrow=none;html=1;rounded=0;entryX=0;entryY=0.5;entryDx=0;entryDy=0;entryPerimeter=0;dashed=1;exitX=1;exitY=0.5;exitDx=0;exitDy=0;" edge="1" parent="1" target="Ziu-hq2vjKG-RK7n9dTh-31" source="Ziu-hq2vjKG-RK7n9dTh-3">
          <mxGeometry width="50" height="50" relative="1" as="geometry">
            <mxPoint x="190" y="2435" as="sourcePoint" />
            <mxPoint x="280" y="2425" as="targetPoint" />
          </mxGeometry>
        </mxCell>
        <mxCell id="Ziu-hq2vjKG-RK7n9dTh-40" style="edgeStyle=orthogonalEdgeStyle;rounded=0;orthogonalLoop=1;jettySize=auto;html=1;" edge="1" parent="1" source="Ziu-hq2vjKG-RK7n9dTh-33" target="Ziu-hq2vjKG-RK7n9dTh-36">
          <mxGeometry relative="1" as="geometry" />
        </mxCell>
        <mxCell id="Ziu-hq2vjKG-RK7n9dTh-45" style="edgeStyle=orthogonalEdgeStyle;rounded=0;orthogonalLoop=1;jettySize=auto;html=1;" edge="1" parent="1" source="Ziu-hq2vjKG-RK7n9dTh-33" target="Ziu-hq2vjKG-RK7n9dTh-42">
          <mxGeometry relative="1" as="geometry" />
        </mxCell>
        <mxCell id="Ziu-hq2vjKG-RK7n9dTh-33" value="depth &amp;lt; 1" style="rhombus;whiteSpace=wrap;html=1;" vertex="1" parent="1">
          <mxGeometry x="40" y="2820" width="160" height="40" as="geometry" />
        </mxCell>
        <mxCell id="Ziu-hq2vjKG-RK7n9dTh-35" value="" style="group" vertex="1" connectable="0" parent="1">
          <mxGeometry x="40" y="2880" width="160" height="30" as="geometry" />
        </mxCell>
        <mxCell id="Ziu-hq2vjKG-RK7n9dTh-36" value="Draw ()" style="rounded=0;whiteSpace=wrap;html=1;" vertex="1" parent="Ziu-hq2vjKG-RK7n9dTh-35">
          <mxGeometry width="160" height="30" as="geometry" />
        </mxCell>
        <mxCell id="Ziu-hq2vjKG-RK7n9dTh-37" value="" style="endArrow=none;html=1;rounded=0;" edge="1" parent="Ziu-hq2vjKG-RK7n9dTh-35">
          <mxGeometry width="50" height="50" relative="1" as="geometry">
            <mxPoint x="8" as="sourcePoint" />
            <mxPoint x="8" y="30" as="targetPoint" />
          </mxGeometry>
        </mxCell>
        <mxCell id="Ziu-hq2vjKG-RK7n9dTh-38" value="" style="endArrow=none;html=1;rounded=0;" edge="1" parent="Ziu-hq2vjKG-RK7n9dTh-35">
          <mxGeometry width="50" height="50" relative="1" as="geometry">
            <mxPoint x="152" as="sourcePoint" />
            <mxPoint x="152" y="30" as="targetPoint" />
          </mxGeometry>
        </mxCell>
        <mxCell id="Ziu-hq2vjKG-RK7n9dTh-41" value="" style="group" vertex="1" connectable="0" parent="1">
          <mxGeometry x="220" y="2880" width="160" height="30" as="geometry" />
        </mxCell>
        <mxCell id="Ziu-hq2vjKG-RK7n9dTh-42" value="Fractal (depth - 1, 1)" style="rounded=0;whiteSpace=wrap;html=1;" vertex="1" parent="Ziu-hq2vjKG-RK7n9dTh-41">
          <mxGeometry width="160" height="30" as="geometry" />
        </mxCell>
        <mxCell id="Ziu-hq2vjKG-RK7n9dTh-43" value="" style="endArrow=none;html=1;rounded=0;" edge="1" parent="Ziu-hq2vjKG-RK7n9dTh-41">
          <mxGeometry width="50" height="50" relative="1" as="geometry">
            <mxPoint x="8" as="sourcePoint" />
            <mxPoint x="8" y="30" as="targetPoint" />
          </mxGeometry>
        </mxCell>
        <mxCell id="Ziu-hq2vjKG-RK7n9dTh-44" value="" style="endArrow=none;html=1;rounded=0;" edge="1" parent="Ziu-hq2vjKG-RK7n9dTh-41">
          <mxGeometry width="50" height="50" relative="1" as="geometry">
            <mxPoint x="152" as="sourcePoint" />
            <mxPoint x="152" y="30" as="targetPoint" />
          </mxGeometry>
        </mxCell>
        <mxCell id="Ziu-hq2vjKG-RK7n9dTh-52" style="edgeStyle=orthogonalEdgeStyle;rounded=0;orthogonalLoop=1;jettySize=auto;html=1;" edge="1" parent="1" source="Ziu-hq2vjKG-RK7n9dTh-46" target="Ziu-hq2vjKG-RK7n9dTh-49">
          <mxGeometry relative="1" as="geometry" />
        </mxCell>
        <mxCell id="Ziu-hq2vjKG-RK7n9dTh-46" value="angle = angle + turn" style="rounded=0;whiteSpace=wrap;html=1;" vertex="1" parent="1">
          <mxGeometry x="220" y="2930" width="160" height="30" as="geometry" />
        </mxCell>
        <mxCell id="Ziu-hq2vjKG-RK7n9dTh-47" style="edgeStyle=orthogonalEdgeStyle;rounded=0;orthogonalLoop=1;jettySize=auto;html=1;" edge="1" parent="1" source="Ziu-hq2vjKG-RK7n9dTh-42" target="Ziu-hq2vjKG-RK7n9dTh-46">
          <mxGeometry relative="1" as="geometry" />
        </mxCell>
        <mxCell id="Ziu-hq2vjKG-RK7n9dTh-48" value="" style="group" vertex="1" connectable="0" parent="1">
          <mxGeometry x="220" y="2980" width="160" height="30" as="geometry" />
        </mxCell>
        <mxCell id="Ziu-hq2vjKG-RK7n9dTh-49" value="Fractal (depth - 1, -1)" style="rounded=0;whiteSpace=wrap;html=1;" vertex="1" parent="Ziu-hq2vjKG-RK7n9dTh-48">
          <mxGeometry width="160" height="30" as="geometry" />
        </mxCell>
        <mxCell id="Ziu-hq2vjKG-RK7n9dTh-50" value="" style="endArrow=none;html=1;rounded=0;" edge="1" parent="Ziu-hq2vjKG-RK7n9dTh-48">
          <mxGeometry width="50" height="50" relative="1" as="geometry">
            <mxPoint x="8" as="sourcePoint" />
            <mxPoint x="8" y="30" as="targetPoint" />
          </mxGeometry>
        </mxCell>
        <mxCell id="Ziu-hq2vjKG-RK7n9dTh-51" value="" style="endArrow=none;html=1;rounded=0;" edge="1" parent="Ziu-hq2vjKG-RK7n9dTh-48">
          <mxGeometry width="50" height="50" relative="1" as="geometry">
            <mxPoint x="152" as="sourcePoint" />
            <mxPoint x="152" y="30" as="targetPoint" />
          </mxGeometry>
        </mxCell>
        <mxCell id="Ziu-hq2vjKG-RK7n9dTh-53" value="Начало&lt;div&gt;Fractal&lt;/div&gt;" style="rounded=1;whiteSpace=wrap;html=1;arcSize=50;" vertex="1" parent="1">
          <mxGeometry x="40" y="3049.9999999999995" width="160" height="40" as="geometry" />
        </mxCell>
        <mxCell id="Ziu-hq2vjKG-RK7n9dTh-54" style="edgeStyle=orthogonalEdgeStyle;rounded=0;orthogonalLoop=1;jettySize=auto;html=1;" edge="1" parent="1" source="Ziu-hq2vjKG-RK7n9dTh-36" target="Ziu-hq2vjKG-RK7n9dTh-53">
          <mxGeometry relative="1" as="geometry" />
        </mxCell>
        <mxCell id="Ziu-hq2vjKG-RK7n9dTh-55" value="" style="endArrow=none;html=1;rounded=0;" edge="1" parent="1">
          <mxGeometry width="50" height="50" relative="1" as="geometry">
            <mxPoint x="120" y="3030" as="sourcePoint" />
            <mxPoint x="300" y="3030" as="targetPoint" />
          </mxGeometry>
        </mxCell>
        <mxCell id="Ziu-hq2vjKG-RK7n9dTh-56" value="" style="endArrow=none;html=1;rounded=0;entryX=0.5;entryY=1;entryDx=0;entryDy=0;" edge="1" parent="1" target="Ziu-hq2vjKG-RK7n9dTh-49">
          <mxGeometry width="50" height="50" relative="1" as="geometry">
            <mxPoint x="300" y="3030" as="sourcePoint" />
            <mxPoint x="190" y="2960" as="targetPoint" />
          </mxGeometry>
        </mxCell>
        <mxCell id="Ziu-hq2vjKG-RK7n9dTh-57" value="Да" style="text;html=1;align=center;verticalAlign=middle;resizable=0;points=[];autosize=1;strokeColor=none;fillColor=none;" vertex="1" parent="1">
          <mxGeometry x="80" y="2850" width="40" height="30" as="geometry" />
        </mxCell>
        <mxCell id="Ziu-hq2vjKG-RK7n9dTh-58" value="Нет" style="text;html=1;align=center;verticalAlign=middle;resizable=0;points=[];autosize=1;strokeColor=none;fillColor=none;" vertex="1" parent="1">
          <mxGeometry x="180" y="2810" width="40" height="30" as="geometry" />
        </mxCell>
        <mxCell id="Ziu-hq2vjKG-RK7n9dTh-61" style="edgeStyle=orthogonalEdgeStyle;rounded=0;orthogonalLoop=1;jettySize=auto;html=1;" edge="1" parent="1" source="Ziu-hq2vjKG-RK7n9dTh-59" target="Ziu-hq2vjKG-RK7n9dTh-60">
          <mxGeometry relative="1" as="geometry" />
        </mxCell>
        <mxCell id="Ziu-hq2vjKG-RK7n9dTh-59" value="Начало&lt;div&gt;DrawFractal&lt;/div&gt;" style="rounded=1;whiteSpace=wrap;html=1;arcSize=50;" vertex="1" parent="1">
          <mxGeometry x="880" y="2359.9999999999995" width="160" height="40" as="geometry" />
        </mxCell>
        <mxCell id="Ziu-hq2vjKG-RK7n9dTh-67" style="edgeStyle=orthogonalEdgeStyle;rounded=0;orthogonalLoop=1;jettySize=auto;html=1;" edge="1" parent="1" source="Ziu-hq2vjKG-RK7n9dTh-60" target="Ziu-hq2vjKG-RK7n9dTh-66">
          <mxGeometry relative="1" as="geometry" />
        </mxCell>
        <mxCell id="Ziu-hq2vjKG-RK7n9dTh-60" value="x, y, sx, sy, depth" style="shape=parallelogram;perimeter=parallelogramPerimeter;whiteSpace=wrap;html=1;fixedSize=1;" vertex="1" parent="1">
          <mxGeometry x="880" y="2420" width="160" height="30" as="geometry" />
        </mxCell>
        <mxCell id="Ziu-hq2vjKG-RK7n9dTh-64" value="x, y, sx, sy, depth - по значению" style="strokeWidth=1;html=1;shape=mxgraph.flowchart.annotation_1;align=left;pointerEvents=1;" vertex="1" parent="1">
          <mxGeometry x="1070" y="2420" width="5" height="30" as="geometry" />
        </mxCell>
        <mxCell id="Ziu-hq2vjKG-RK7n9dTh-65" value="" style="endArrow=none;html=1;rounded=0;entryX=0;entryY=0.5;entryDx=0;entryDy=0;entryPerimeter=0;dashed=1;" edge="1" parent="1" target="Ziu-hq2vjKG-RK7n9dTh-64">
          <mxGeometry width="50" height="50" relative="1" as="geometry">
            <mxPoint x="1030" y="2435" as="sourcePoint" />
            <mxPoint x="1120" y="2425" as="targetPoint" />
          </mxGeometry>
        </mxCell>
        <mxCell id="Ziu-hq2vjKG-RK7n9dTh-69" style="edgeStyle=orthogonalEdgeStyle;rounded=0;orthogonalLoop=1;jettySize=auto;html=1;" edge="1" parent="1" source="Ziu-hq2vjKG-RK7n9dTh-66" target="Ziu-hq2vjKG-RK7n9dTh-68">
          <mxGeometry relative="1" as="geometry" />
        </mxCell>
        <mxCell id="Ziu-hq2vjKG-RK7n9dTh-66" value="SetCordinateScale (sx, sy)" style="rounded=0;whiteSpace=wrap;html=1;" vertex="1" parent="1">
          <mxGeometry x="880" y="2470" width="160" height="30" as="geometry" />
        </mxCell>
        <mxCell id="Ziu-hq2vjKG-RK7n9dTh-75" style="edgeStyle=orthogonalEdgeStyle;rounded=0;orthogonalLoop=1;jettySize=auto;html=1;" edge="1" parent="1" source="Ziu-hq2vjKG-RK7n9dTh-68" target="Ziu-hq2vjKG-RK7n9dTh-74">
          <mxGeometry relative="1" as="geometry" />
        </mxCell>
        <mxCell id="Ziu-hq2vjKG-RK7n9dTh-68" value="visibleWidth =&amp;nbsp;&lt;div&gt;windowWidth div sx&lt;/div&gt;&lt;div&gt;visibleHeight =&amp;nbsp;&lt;div&gt;windowHeight&amp;nbsp;div sy&lt;/div&gt;&lt;/div&gt;" style="rounded=0;whiteSpace=wrap;html=1;" vertex="1" parent="1">
          <mxGeometry x="880" y="2520" width="160" height="70" as="geometry" />
        </mxCell>
        <mxCell id="Ziu-hq2vjKG-RK7n9dTh-72" value="windowWidth - ширина окна&lt;div&gt;windowHeight - высота окна&lt;/div&gt;" style="strokeWidth=1;html=1;shape=mxgraph.flowchart.annotation_1;align=left;pointerEvents=1;" vertex="1" parent="1">
          <mxGeometry x="1070" y="2540" width="5" height="30" as="geometry" />
        </mxCell>
        <mxCell id="Ziu-hq2vjKG-RK7n9dTh-73" value="" style="endArrow=none;html=1;rounded=0;entryX=0;entryY=0.5;entryDx=0;entryDy=0;entryPerimeter=0;dashed=1;exitX=1;exitY=0.5;exitDx=0;exitDy=0;" edge="1" parent="1" target="Ziu-hq2vjKG-RK7n9dTh-72" source="Ziu-hq2vjKG-RK7n9dTh-68">
          <mxGeometry width="50" height="50" relative="1" as="geometry">
            <mxPoint x="1030" y="2555" as="sourcePoint" />
            <mxPoint x="1120" y="2545" as="targetPoint" />
          </mxGeometry>
        </mxCell>
        <mxCell id="Ziu-hq2vjKG-RK7n9dTh-77" style="edgeStyle=orthogonalEdgeStyle;rounded=0;orthogonalLoop=1;jettySize=auto;html=1;" edge="1" parent="1" source="Ziu-hq2vjKG-RK7n9dTh-74" target="Ziu-hq2vjKG-RK7n9dTh-76">
          <mxGeometry relative="1" as="geometry" />
        </mxCell>
        <mxCell id="Ziu-hq2vjKG-RK7n9dTh-74" value="wrappedX = x mod visibleWidth&lt;div&gt;wrappedY = y mod visibleHeight&lt;/div&gt;" style="rounded=0;whiteSpace=wrap;html=1;" vertex="1" parent="1">
          <mxGeometry x="880" y="2610" width="160" height="70" as="geometry" />
        </mxCell>
        <mxCell id="Ziu-hq2vjKG-RK7n9dTh-79" style="edgeStyle=orthogonalEdgeStyle;rounded=0;orthogonalLoop=1;jettySize=auto;html=1;" edge="1" parent="1" source="Ziu-hq2vjKG-RK7n9dTh-76" target="Ziu-hq2vjKG-RK7n9dTh-78">
          <mxGeometry relative="1" as="geometry" />
        </mxCell>
        <mxCell id="Ziu-hq2vjKG-RK7n9dTh-84" style="edgeStyle=orthogonalEdgeStyle;rounded=0;orthogonalLoop=1;jettySize=auto;html=1;endArrow=none;startFill=0;" edge="1" parent="1" source="Ziu-hq2vjKG-RK7n9dTh-76">
          <mxGeometry relative="1" as="geometry">
            <mxPoint x="960" y="2820" as="targetPoint" />
            <Array as="points">
              <mxPoint x="1060" y="2720" />
              <mxPoint x="1060" y="2820" />
            </Array>
          </mxGeometry>
        </mxCell>
        <mxCell id="Ziu-hq2vjKG-RK7n9dTh-76" value="wrappedX &amp;lt; 0" style="rhombus;whiteSpace=wrap;html=1;" vertex="1" parent="1">
          <mxGeometry x="880" y="2700" width="160" height="40" as="geometry" />
        </mxCell>
        <mxCell id="Ziu-hq2vjKG-RK7n9dTh-82" style="edgeStyle=orthogonalEdgeStyle;rounded=0;orthogonalLoop=1;jettySize=auto;html=1;" edge="1" parent="1" source="Ziu-hq2vjKG-RK7n9dTh-78" target="Ziu-hq2vjKG-RK7n9dTh-80">
          <mxGeometry relative="1" as="geometry" />
        </mxCell>
        <mxCell id="Ziu-hq2vjKG-RK7n9dTh-78" value="wrappedX = wrappedX + visibleWidth" style="rounded=0;whiteSpace=wrap;html=1;" vertex="1" parent="1">
          <mxGeometry x="880" y="2760" width="160" height="40" as="geometry" />
        </mxCell>
        <mxCell id="Ziu-hq2vjKG-RK7n9dTh-83" style="edgeStyle=orthogonalEdgeStyle;rounded=0;orthogonalLoop=1;jettySize=auto;html=1;" edge="1" parent="1" source="Ziu-hq2vjKG-RK7n9dTh-80" target="Ziu-hq2vjKG-RK7n9dTh-81">
          <mxGeometry relative="1" as="geometry" />
        </mxCell>
        <mxCell id="Ziu-hq2vjKG-RK7n9dTh-88" style="edgeStyle=orthogonalEdgeStyle;rounded=0;orthogonalLoop=1;jettySize=auto;html=1;endArrow=none;startFill=0;" edge="1" parent="1" source="Ziu-hq2vjKG-RK7n9dTh-80">
          <mxGeometry relative="1" as="geometry">
            <mxPoint x="960" y="2960" as="targetPoint" />
            <Array as="points">
              <mxPoint x="1060" y="2860" />
              <mxPoint x="1060" y="2960" />
            </Array>
          </mxGeometry>
        </mxCell>
        <mxCell id="Ziu-hq2vjKG-RK7n9dTh-80" value="wrappedY &amp;lt; 0" style="rhombus;whiteSpace=wrap;html=1;" vertex="1" parent="1">
          <mxGeometry x="880" y="2840" width="160" height="40" as="geometry" />
        </mxCell>
        <mxCell id="Ziu-hq2vjKG-RK7n9dTh-86" style="edgeStyle=orthogonalEdgeStyle;rounded=0;orthogonalLoop=1;jettySize=auto;html=1;" edge="1" parent="1" source="Ziu-hq2vjKG-RK7n9dTh-81" target="Ziu-hq2vjKG-RK7n9dTh-85">
          <mxGeometry relative="1" as="geometry" />
        </mxCell>
        <mxCell id="Ziu-hq2vjKG-RK7n9dTh-81" value="wrappedY = wrappedY + visibleHeight" style="rounded=0;whiteSpace=wrap;html=1;" vertex="1" parent="1">
          <mxGeometry x="880" y="2900" width="160" height="40" as="geometry" />
        </mxCell>
        <mxCell id="Ziu-hq2vjKG-RK7n9dTh-94" style="edgeStyle=orthogonalEdgeStyle;rounded=0;orthogonalLoop=1;jettySize=auto;html=1;" edge="1" parent="1" source="Ziu-hq2vjKG-RK7n9dTh-85">
          <mxGeometry relative="1" as="geometry">
            <mxPoint x="960" y="3040" as="targetPoint" />
          </mxGeometry>
        </mxCell>
        <mxCell id="Ziu-hq2vjKG-RK7n9dTh-85" value="MoveTo&amp;nbsp;&lt;div&gt;(wrappedX, wrappedY)&lt;/div&gt;" style="rounded=0;whiteSpace=wrap;html=1;" vertex="1" parent="1">
          <mxGeometry x="880" y="2980" width="160" height="40" as="geometry" />
        </mxCell>
        <mxCell id="Ziu-hq2vjKG-RK7n9dTh-89" value="Да" style="text;html=1;align=center;verticalAlign=middle;resizable=0;points=[];autosize=1;strokeColor=none;fillColor=none;" vertex="1" parent="1">
          <mxGeometry x="920" y="2730" width="40" height="30" as="geometry" />
        </mxCell>
        <mxCell id="Ziu-hq2vjKG-RK7n9dTh-90" value="Да" style="text;html=1;align=center;verticalAlign=middle;resizable=0;points=[];autosize=1;strokeColor=none;fillColor=none;" vertex="1" parent="1">
          <mxGeometry x="920" y="2870" width="40" height="30" as="geometry" />
        </mxCell>
        <mxCell id="Ziu-hq2vjKG-RK7n9dTh-91" value="Нет" style="text;html=1;align=center;verticalAlign=middle;resizable=0;points=[];autosize=1;strokeColor=none;fillColor=none;" vertex="1" parent="1">
          <mxGeometry x="1020" y="2690" width="40" height="30" as="geometry" />
        </mxCell>
        <mxCell id="Ziu-hq2vjKG-RK7n9dTh-92" value="Нет" style="text;html=1;align=center;verticalAlign=middle;resizable=0;points=[];autosize=1;strokeColor=none;fillColor=none;" vertex="1" parent="1">
          <mxGeometry x="1020" y="2830" width="40" height="30" as="geometry" />
        </mxCell>
        <mxCell id="Ziu-hq2vjKG-RK7n9dTh-95" value="Конец&lt;div&gt;DrawFractal&lt;/div&gt;" style="rounded=1;whiteSpace=wrap;html=1;arcSize=50;" vertex="1" parent="1">
          <mxGeometry x="880" y="3089.9999999999995" width="160" height="40" as="geometry" />
        </mxCell>
        <mxCell id="Ziu-hq2vjKG-RK7n9dTh-99" style="edgeStyle=orthogonalEdgeStyle;rounded=0;orthogonalLoop=1;jettySize=auto;html=1;" edge="1" parent="1" source="Ziu-hq2vjKG-RK7n9dTh-97" target="Ziu-hq2vjKG-RK7n9dTh-98">
          <mxGeometry relative="1" as="geometry" />
        </mxCell>
        <mxCell id="Ziu-hq2vjKG-RK7n9dTh-97" value="Начало&lt;div&gt;Scale&lt;/div&gt;" style="rounded=1;whiteSpace=wrap;html=1;arcSize=50;" vertex="1" parent="1">
          <mxGeometry x="1400" y="2360" width="100" height="30" as="geometry" />
        </mxCell>
        <mxCell id="Ziu-hq2vjKG-RK7n9dTh-103" style="edgeStyle=orthogonalEdgeStyle;rounded=0;orthogonalLoop=1;jettySize=auto;html=1;" edge="1" parent="1" source="Ziu-hq2vjKG-RK7n9dTh-98" target="Ziu-hq2vjKG-RK7n9dTh-102">
          <mxGeometry relative="1" as="geometry" />
        </mxCell>
        <mxCell id="Ziu-hq2vjKG-RK7n9dTh-98" value="key" style="shape=parallelogram;perimeter=parallelogramPerimeter;whiteSpace=wrap;html=1;fixedSize=1;" vertex="1" parent="1">
          <mxGeometry x="1400" y="2410" width="100" height="30" as="geometry" />
        </mxCell>
        <mxCell id="Ziu-hq2vjKG-RK7n9dTh-100" value="key - по значению" style="strokeWidth=1;html=1;shape=mxgraph.flowchart.annotation_1;align=left;pointerEvents=1;" vertex="1" parent="1">
          <mxGeometry x="1530" y="2410" width="5" height="30" as="geometry" />
        </mxCell>
        <mxCell id="Ziu-hq2vjKG-RK7n9dTh-101" value="" style="endArrow=none;html=1;rounded=0;entryX=0;entryY=0.5;entryDx=0;entryDy=0;entryPerimeter=0;dashed=1;" edge="1" parent="1" target="Ziu-hq2vjKG-RK7n9dTh-100">
          <mxGeometry width="50" height="50" relative="1" as="geometry">
            <mxPoint x="1490" y="2425" as="sourcePoint" />
            <mxPoint x="1580" y="2415" as="targetPoint" />
          </mxGeometry>
        </mxCell>
        <mxCell id="Ziu-hq2vjKG-RK7n9dTh-126" style="edgeStyle=orthogonalEdgeStyle;rounded=0;orthogonalLoop=1;jettySize=auto;html=1;" edge="1" parent="1" source="Ziu-hq2vjKG-RK7n9dTh-102" target="Ziu-hq2vjKG-RK7n9dTh-109">
          <mxGeometry relative="1" as="geometry">
            <Array as="points">
              <mxPoint x="1450" y="2500" />
              <mxPoint x="1570" y="2500" />
            </Array>
          </mxGeometry>
        </mxCell>
        <mxCell id="Ziu-hq2vjKG-RK7n9dTh-127" style="edgeStyle=orthogonalEdgeStyle;rounded=0;orthogonalLoop=1;jettySize=auto;html=1;" edge="1" parent="1" source="Ziu-hq2vjKG-RK7n9dTh-102" target="Ziu-hq2vjKG-RK7n9dTh-112">
          <mxGeometry relative="1" as="geometry">
            <Array as="points">
              <mxPoint x="1450" y="2500" />
              <mxPoint x="1690" y="2500" />
            </Array>
          </mxGeometry>
        </mxCell>
        <mxCell id="Ziu-hq2vjKG-RK7n9dTh-128" style="edgeStyle=orthogonalEdgeStyle;rounded=0;orthogonalLoop=1;jettySize=auto;html=1;" edge="1" parent="1" source="Ziu-hq2vjKG-RK7n9dTh-102" target="Ziu-hq2vjKG-RK7n9dTh-117">
          <mxGeometry relative="1" as="geometry">
            <Array as="points">
              <mxPoint x="1450" y="2500" />
              <mxPoint x="1810" y="2500" />
            </Array>
          </mxGeometry>
        </mxCell>
        <mxCell id="Ziu-hq2vjKG-RK7n9dTh-129" style="edgeStyle=orthogonalEdgeStyle;rounded=0;orthogonalLoop=1;jettySize=auto;html=1;" edge="1" parent="1" source="Ziu-hq2vjKG-RK7n9dTh-102" target="Ziu-hq2vjKG-RK7n9dTh-122">
          <mxGeometry relative="1" as="geometry">
            <Array as="points">
              <mxPoint x="1450" y="2500" />
              <mxPoint x="1930" y="2500" />
            </Array>
          </mxGeometry>
        </mxCell>
        <mxCell id="Ziu-hq2vjKG-RK7n9dTh-130" style="edgeStyle=orthogonalEdgeStyle;rounded=0;orthogonalLoop=1;jettySize=auto;html=1;" edge="1" parent="1" source="Ziu-hq2vjKG-RK7n9dTh-102" target="Ziu-hq2vjKG-RK7n9dTh-123">
          <mxGeometry relative="1" as="geometry">
            <Array as="points">
              <mxPoint x="1450" y="2500" />
              <mxPoint x="2050" y="2500" />
            </Array>
          </mxGeometry>
        </mxCell>
        <mxCell id="Ziu-hq2vjKG-RK7n9dTh-131" style="edgeStyle=orthogonalEdgeStyle;rounded=0;orthogonalLoop=1;jettySize=auto;html=1;" edge="1" parent="1" source="Ziu-hq2vjKG-RK7n9dTh-102" target="Ziu-hq2vjKG-RK7n9dTh-124">
          <mxGeometry relative="1" as="geometry">
            <Array as="points">
              <mxPoint x="1450" y="2500" />
              <mxPoint x="2170" y="2500" />
            </Array>
          </mxGeometry>
        </mxCell>
        <mxCell id="Ziu-hq2vjKG-RK7n9dTh-132" style="edgeStyle=orthogonalEdgeStyle;rounded=0;orthogonalLoop=1;jettySize=auto;html=1;" edge="1" parent="1" source="Ziu-hq2vjKG-RK7n9dTh-102" target="Ziu-hq2vjKG-RK7n9dTh-125">
          <mxGeometry relative="1" as="geometry">
            <Array as="points">
              <mxPoint x="1450" y="2500" />
              <mxPoint x="2290" y="2500" />
            </Array>
          </mxGeometry>
        </mxCell>
        <mxCell id="Ziu-hq2vjKG-RK7n9dTh-158" style="edgeStyle=orthogonalEdgeStyle;rounded=0;orthogonalLoop=1;jettySize=auto;html=1;" edge="1" parent="1" source="Ziu-hq2vjKG-RK7n9dTh-102" target="Ziu-hq2vjKG-RK7n9dTh-104">
          <mxGeometry relative="1" as="geometry" />
        </mxCell>
        <mxCell id="Ziu-hq2vjKG-RK7n9dTh-102" value="key" style="rhombus;whiteSpace=wrap;html=1;" vertex="1" parent="1">
          <mxGeometry x="1400" y="2460" width="100" height="30" as="geometry" />
        </mxCell>
        <mxCell id="Ziu-hq2vjKG-RK7n9dTh-106" style="edgeStyle=orthogonalEdgeStyle;rounded=0;orthogonalLoop=1;jettySize=auto;html=1;" edge="1" parent="1" source="Ziu-hq2vjKG-RK7n9dTh-104" target="Ziu-hq2vjKG-RK7n9dTh-105">
          <mxGeometry relative="1" as="geometry" />
        </mxCell>
        <mxCell id="Ziu-hq2vjKG-RK7n9dTh-104" value="depth &amp;lt;= 10" style="rhombus;whiteSpace=wrap;html=1;" vertex="1" parent="1">
          <mxGeometry x="1400" y="2530" width="100" height="30" as="geometry" />
        </mxCell>
        <mxCell id="Ziu-hq2vjKG-RK7n9dTh-175" style="edgeStyle=orthogonalEdgeStyle;rounded=0;orthogonalLoop=1;jettySize=auto;html=1;" edge="1" parent="1" source="Ziu-hq2vjKG-RK7n9dTh-105" target="Ziu-hq2vjKG-RK7n9dTh-139">
          <mxGeometry relative="1" as="geometry" />
        </mxCell>
        <mxCell id="Ziu-hq2vjKG-RK7n9dTh-105" value="depth++" style="rounded=0;whiteSpace=wrap;html=1;" vertex="1" parent="1">
          <mxGeometry x="1400" y="2580" width="100" height="30" as="geometry" />
        </mxCell>
        <mxCell id="Ziu-hq2vjKG-RK7n9dTh-108" style="edgeStyle=orthogonalEdgeStyle;rounded=0;orthogonalLoop=1;jettySize=auto;html=1;" edge="1" parent="1" source="Ziu-hq2vjKG-RK7n9dTh-109" target="Ziu-hq2vjKG-RK7n9dTh-110">
          <mxGeometry relative="1" as="geometry" />
        </mxCell>
        <mxCell id="Ziu-hq2vjKG-RK7n9dTh-109" value="depth &amp;gt; 1" style="rhombus;whiteSpace=wrap;html=1;" vertex="1" parent="1">
          <mxGeometry x="1520" y="2530" width="100" height="30" as="geometry" />
        </mxCell>
        <mxCell id="Ziu-hq2vjKG-RK7n9dTh-110" value="depth--" style="rounded=0;whiteSpace=wrap;html=1;" vertex="1" parent="1">
          <mxGeometry x="1520" y="2580" width="100" height="30" as="geometry" />
        </mxCell>
        <mxCell id="Ziu-hq2vjKG-RK7n9dTh-111" style="edgeStyle=orthogonalEdgeStyle;rounded=0;orthogonalLoop=1;jettySize=auto;html=1;" edge="1" parent="1" source="Ziu-hq2vjKG-RK7n9dTh-112" target="Ziu-hq2vjKG-RK7n9dTh-113">
          <mxGeometry relative="1" as="geometry" />
        </mxCell>
        <mxCell id="Ziu-hq2vjKG-RK7n9dTh-112" value="sx &amp;lt; 4" style="rhombus;whiteSpace=wrap;html=1;" vertex="1" parent="1">
          <mxGeometry x="1640" y="2530" width="100" height="30" as="geometry" />
        </mxCell>
        <mxCell id="Ziu-hq2vjKG-RK7n9dTh-115" style="edgeStyle=orthogonalEdgeStyle;rounded=0;orthogonalLoop=1;jettySize=auto;html=1;" edge="1" parent="1" source="Ziu-hq2vjKG-RK7n9dTh-113" target="Ziu-hq2vjKG-RK7n9dTh-114">
          <mxGeometry relative="1" as="geometry" />
        </mxCell>
        <mxCell id="Ziu-hq2vjKG-RK7n9dTh-113" value="sx = sx + 1&lt;div&gt;sy = sy + 1&lt;/div&gt;" style="rounded=0;whiteSpace=wrap;html=1;" vertex="1" parent="1">
          <mxGeometry x="1640" y="2580" width="100" height="40" as="geometry" />
        </mxCell>
        <mxCell id="Ziu-hq2vjKG-RK7n9dTh-114" value="x = 500 div sx&lt;div&gt;y = 150 div sy&lt;/div&gt;" style="rounded=0;whiteSpace=wrap;html=1;" vertex="1" parent="1">
          <mxGeometry x="1640" y="2640" width="100" height="40" as="geometry" />
        </mxCell>
        <mxCell id="Ziu-hq2vjKG-RK7n9dTh-116" style="edgeStyle=orthogonalEdgeStyle;rounded=0;orthogonalLoop=1;jettySize=auto;html=1;" edge="1" parent="1" source="Ziu-hq2vjKG-RK7n9dTh-117" target="Ziu-hq2vjKG-RK7n9dTh-119">
          <mxGeometry relative="1" as="geometry" />
        </mxCell>
        <mxCell id="Ziu-hq2vjKG-RK7n9dTh-117" value="sx &amp;gt; 1" style="rhombus;whiteSpace=wrap;html=1;" vertex="1" parent="1">
          <mxGeometry x="1760" y="2530" width="100" height="30" as="geometry" />
        </mxCell>
        <mxCell id="Ziu-hq2vjKG-RK7n9dTh-118" style="edgeStyle=orthogonalEdgeStyle;rounded=0;orthogonalLoop=1;jettySize=auto;html=1;" edge="1" parent="1" source="Ziu-hq2vjKG-RK7n9dTh-119" target="Ziu-hq2vjKG-RK7n9dTh-120">
          <mxGeometry relative="1" as="geometry" />
        </mxCell>
        <mxCell id="Ziu-hq2vjKG-RK7n9dTh-119" value="sx = sx - 1&lt;div&gt;sy = sy - 1&lt;/div&gt;" style="rounded=0;whiteSpace=wrap;html=1;" vertex="1" parent="1">
          <mxGeometry x="1760" y="2580" width="100" height="40" as="geometry" />
        </mxCell>
        <mxCell id="Ziu-hq2vjKG-RK7n9dTh-120" value="x = 500 div sx&lt;div&gt;y = 150 div sy&lt;/div&gt;" style="rounded=0;whiteSpace=wrap;html=1;" vertex="1" parent="1">
          <mxGeometry x="1760" y="2640" width="100" height="40" as="geometry" />
        </mxCell>
        <mxCell id="Ziu-hq2vjKG-RK7n9dTh-122" value="y = y - 10" style="rounded=0;whiteSpace=wrap;html=1;" vertex="1" parent="1">
          <mxGeometry x="1880" y="2530" width="100" height="30" as="geometry" />
        </mxCell>
        <mxCell id="Ziu-hq2vjKG-RK7n9dTh-123" value="y = y + 10" style="rounded=0;whiteSpace=wrap;html=1;" vertex="1" parent="1">
          <mxGeometry x="2000" y="2530" width="100" height="30" as="geometry" />
        </mxCell>
        <mxCell id="Ziu-hq2vjKG-RK7n9dTh-124" value="x = x + 10" style="rounded=0;whiteSpace=wrap;html=1;" vertex="1" parent="1">
          <mxGeometry x="2120" y="2530" width="100" height="30" as="geometry" />
        </mxCell>
        <mxCell id="Ziu-hq2vjKG-RK7n9dTh-125" value="x = x - 10" style="rounded=0;whiteSpace=wrap;html=1;" vertex="1" parent="1">
          <mxGeometry x="2240" y="2530" width="100" height="30" as="geometry" />
        </mxCell>
        <mxCell id="Ziu-hq2vjKG-RK7n9dTh-133" value="" style="group" vertex="1" connectable="0" parent="1">
          <mxGeometry x="880" y="3040" width="160" height="30" as="geometry" />
        </mxCell>
        <mxCell id="Ziu-hq2vjKG-RK7n9dTh-134" value="Fractal (depth, 1)" style="rounded=0;whiteSpace=wrap;html=1;" vertex="1" parent="Ziu-hq2vjKG-RK7n9dTh-133">
          <mxGeometry width="160" height="30" as="geometry" />
        </mxCell>
        <mxCell id="Ziu-hq2vjKG-RK7n9dTh-135" value="" style="endArrow=none;html=1;rounded=0;" edge="1" parent="Ziu-hq2vjKG-RK7n9dTh-133">
          <mxGeometry width="50" height="50" relative="1" as="geometry">
            <mxPoint x="8" as="sourcePoint" />
            <mxPoint x="8" y="30" as="targetPoint" />
          </mxGeometry>
        </mxCell>
        <mxCell id="Ziu-hq2vjKG-RK7n9dTh-136" value="" style="endArrow=none;html=1;rounded=0;" edge="1" parent="Ziu-hq2vjKG-RK7n9dTh-133">
          <mxGeometry width="50" height="50" relative="1" as="geometry">
            <mxPoint x="152" as="sourcePoint" />
            <mxPoint x="152" y="30" as="targetPoint" />
          </mxGeometry>
        </mxCell>
        <mxCell id="Ziu-hq2vjKG-RK7n9dTh-137" style="edgeStyle=orthogonalEdgeStyle;rounded=0;orthogonalLoop=1;jettySize=auto;html=1;" edge="1" parent="1" source="Ziu-hq2vjKG-RK7n9dTh-134" target="Ziu-hq2vjKG-RK7n9dTh-95">
          <mxGeometry relative="1" as="geometry" />
        </mxCell>
        <mxCell id="Ziu-hq2vjKG-RK7n9dTh-138" value="" style="group" vertex="1" connectable="0" parent="1">
          <mxGeometry x="1400" y="2740" width="100" height="50" as="geometry" />
        </mxCell>
        <mxCell id="Ziu-hq2vjKG-RK7n9dTh-139" value="DrawFractal&amp;nbsp;&lt;div&gt;(x, y, sx, sy, depth)&lt;/div&gt;" style="rounded=0;whiteSpace=wrap;html=1;" vertex="1" parent="Ziu-hq2vjKG-RK7n9dTh-138">
          <mxGeometry width="100" height="50" as="geometry" />
        </mxCell>
        <mxCell id="Ziu-hq2vjKG-RK7n9dTh-140" value="" style="endArrow=none;html=1;rounded=0;" edge="1" parent="Ziu-hq2vjKG-RK7n9dTh-138">
          <mxGeometry width="50" height="50" relative="1" as="geometry">
            <mxPoint x="5" as="sourcePoint" />
            <mxPoint x="5" y="50" as="targetPoint" />
          </mxGeometry>
        </mxCell>
        <mxCell id="Ziu-hq2vjKG-RK7n9dTh-141" value="" style="endArrow=none;html=1;rounded=0;" edge="1" parent="Ziu-hq2vjKG-RK7n9dTh-138">
          <mxGeometry width="50" height="50" relative="1" as="geometry">
            <mxPoint x="95" as="sourcePoint" />
            <mxPoint x="95" y="50" as="targetPoint" />
          </mxGeometry>
        </mxCell>
        <mxCell id="Ziu-hq2vjKG-RK7n9dTh-142" value="" style="endArrow=none;html=1;rounded=0;" edge="1" parent="1">
          <mxGeometry width="50" height="50" relative="1" as="geometry">
            <mxPoint x="1380" y="2710" as="sourcePoint" />
            <mxPoint x="2290" y="2710" as="targetPoint" />
          </mxGeometry>
        </mxCell>
        <mxCell id="Ziu-hq2vjKG-RK7n9dTh-144" value="" style="endArrow=none;html=1;rounded=0;entryX=0;entryY=0.5;entryDx=0;entryDy=0;" edge="1" parent="1" target="Ziu-hq2vjKG-RK7n9dTh-104">
          <mxGeometry width="50" height="50" relative="1" as="geometry">
            <mxPoint x="1380" y="2545" as="sourcePoint" />
            <mxPoint x="1560" y="2660" as="targetPoint" />
          </mxGeometry>
        </mxCell>
        <mxCell id="Ziu-hq2vjKG-RK7n9dTh-145" value="" style="endArrow=none;html=1;rounded=0;" edge="1" parent="1">
          <mxGeometry width="50" height="50" relative="1" as="geometry">
            <mxPoint x="1380" y="2710" as="sourcePoint" />
            <mxPoint x="1380" y="2545" as="targetPoint" />
          </mxGeometry>
        </mxCell>
        <mxCell id="Ziu-hq2vjKG-RK7n9dTh-146" value="" style="endArrow=none;html=1;rounded=0;" edge="1" parent="1">
          <mxGeometry width="50" height="50" relative="1" as="geometry">
            <mxPoint x="1510" y="2710" as="sourcePoint" />
            <mxPoint x="1510" y="2545" as="targetPoint" />
          </mxGeometry>
        </mxCell>
        <mxCell id="Ziu-hq2vjKG-RK7n9dTh-147" value="" style="endArrow=none;html=1;rounded=0;" edge="1" parent="1">
          <mxGeometry width="50" height="50" relative="1" as="geometry">
            <mxPoint x="1630" y="2710" as="sourcePoint" />
            <mxPoint x="1630" y="2545" as="targetPoint" />
          </mxGeometry>
        </mxCell>
        <mxCell id="Ziu-hq2vjKG-RK7n9dTh-148" value="" style="endArrow=none;html=1;rounded=0;" edge="1" parent="1">
          <mxGeometry width="50" height="50" relative="1" as="geometry">
            <mxPoint x="1750" y="2710" as="sourcePoint" />
            <mxPoint x="1750" y="2545" as="targetPoint" />
          </mxGeometry>
        </mxCell>
        <mxCell id="Ziu-hq2vjKG-RK7n9dTh-149" value="" style="endArrow=none;html=1;rounded=0;entryX=0;entryY=0.5;entryDx=0;entryDy=0;" edge="1" parent="1" target="Ziu-hq2vjKG-RK7n9dTh-109">
          <mxGeometry width="50" height="50" relative="1" as="geometry">
            <mxPoint x="1510" y="2545" as="sourcePoint" />
            <mxPoint x="1540" y="2540" as="targetPoint" />
          </mxGeometry>
        </mxCell>
        <mxCell id="Ziu-hq2vjKG-RK7n9dTh-150" value="" style="endArrow=none;html=1;rounded=0;entryX=0;entryY=0.5;entryDx=0;entryDy=0;" edge="1" parent="1" target="Ziu-hq2vjKG-RK7n9dTh-112">
          <mxGeometry width="50" height="50" relative="1" as="geometry">
            <mxPoint x="1630" y="2545" as="sourcePoint" />
            <mxPoint x="1680" y="2540" as="targetPoint" />
          </mxGeometry>
        </mxCell>
        <mxCell id="Ziu-hq2vjKG-RK7n9dTh-151" value="" style="endArrow=none;html=1;rounded=0;entryX=0;entryY=0.5;entryDx=0;entryDy=0;" edge="1" parent="1" target="Ziu-hq2vjKG-RK7n9dTh-117">
          <mxGeometry width="50" height="50" relative="1" as="geometry">
            <mxPoint x="1750" y="2545" as="sourcePoint" />
            <mxPoint x="1800" y="2540" as="targetPoint" />
          </mxGeometry>
        </mxCell>
        <mxCell id="Ziu-hq2vjKG-RK7n9dTh-152" value="" style="endArrow=none;html=1;rounded=0;entryX=0.5;entryY=1;entryDx=0;entryDy=0;" edge="1" parent="1" target="Ziu-hq2vjKG-RK7n9dTh-122">
          <mxGeometry width="50" height="50" relative="1" as="geometry">
            <mxPoint x="1930" y="2710" as="sourcePoint" />
            <mxPoint x="2030" y="2640" as="targetPoint" />
          </mxGeometry>
        </mxCell>
        <mxCell id="Ziu-hq2vjKG-RK7n9dTh-153" value="" style="endArrow=none;html=1;rounded=0;entryX=0.5;entryY=1;entryDx=0;entryDy=0;" edge="1" parent="1" target="Ziu-hq2vjKG-RK7n9dTh-123">
          <mxGeometry width="50" height="50" relative="1" as="geometry">
            <mxPoint x="2050" y="2710" as="sourcePoint" />
            <mxPoint x="2030" y="2640" as="targetPoint" />
          </mxGeometry>
        </mxCell>
        <mxCell id="Ziu-hq2vjKG-RK7n9dTh-154" value="" style="endArrow=none;html=1;rounded=0;entryX=0.5;entryY=1;entryDx=0;entryDy=0;" edge="1" parent="1" target="Ziu-hq2vjKG-RK7n9dTh-124">
          <mxGeometry width="50" height="50" relative="1" as="geometry">
            <mxPoint x="2170" y="2710" as="sourcePoint" />
            <mxPoint x="2240" y="2640" as="targetPoint" />
          </mxGeometry>
        </mxCell>
        <mxCell id="Ziu-hq2vjKG-RK7n9dTh-155" value="" style="endArrow=none;html=1;rounded=0;entryX=0.5;entryY=1;entryDx=0;entryDy=0;" edge="1" parent="1" target="Ziu-hq2vjKG-RK7n9dTh-125">
          <mxGeometry width="50" height="50" relative="1" as="geometry">
            <mxPoint x="2290" y="2710" as="sourcePoint" />
            <mxPoint x="2240" y="2640" as="targetPoint" />
          </mxGeometry>
        </mxCell>
        <mxCell id="Ziu-hq2vjKG-RK7n9dTh-156" value="Да" style="text;html=1;align=center;verticalAlign=middle;resizable=0;points=[];autosize=1;strokeColor=none;fillColor=none;" vertex="1" parent="1">
          <mxGeometry x="1410" y="2550" width="40" height="30" as="geometry" />
        </mxCell>
        <mxCell id="Ziu-hq2vjKG-RK7n9dTh-159" value="Да" style="text;html=1;align=center;verticalAlign=middle;resizable=0;points=[];autosize=1;strokeColor=none;fillColor=none;" vertex="1" parent="1">
          <mxGeometry x="1530" y="2550" width="40" height="30" as="geometry" />
        </mxCell>
        <mxCell id="Ziu-hq2vjKG-RK7n9dTh-160" value="Да" style="text;html=1;align=center;verticalAlign=middle;resizable=0;points=[];autosize=1;strokeColor=none;fillColor=none;" vertex="1" parent="1">
          <mxGeometry x="1650" y="2550" width="40" height="30" as="geometry" />
        </mxCell>
        <mxCell id="Ziu-hq2vjKG-RK7n9dTh-161" value="Да" style="text;html=1;align=center;verticalAlign=middle;resizable=0;points=[];autosize=1;strokeColor=none;fillColor=none;" vertex="1" parent="1">
          <mxGeometry x="1770" y="2550" width="40" height="30" as="geometry" />
        </mxCell>
        <mxCell id="Ziu-hq2vjKG-RK7n9dTh-162" value="Нет" style="text;html=1;align=center;verticalAlign=middle;resizable=0;points=[];autosize=1;strokeColor=none;fillColor=none;" vertex="1" parent="1">
          <mxGeometry x="1380" y="2520" width="40" height="30" as="geometry" />
        </mxCell>
        <mxCell id="Ziu-hq2vjKG-RK7n9dTh-163" value="Нет" style="text;html=1;align=center;verticalAlign=middle;resizable=0;points=[];autosize=1;strokeColor=none;fillColor=none;" vertex="1" parent="1">
          <mxGeometry x="1500" y="2520" width="40" height="30" as="geometry" />
        </mxCell>
        <mxCell id="Ziu-hq2vjKG-RK7n9dTh-164" value="Нет" style="text;html=1;align=center;verticalAlign=middle;resizable=0;points=[];autosize=1;strokeColor=none;fillColor=none;" vertex="1" parent="1">
          <mxGeometry x="1620" y="2520" width="40" height="30" as="geometry" />
        </mxCell>
        <mxCell id="Ziu-hq2vjKG-RK7n9dTh-165" value="Нет" style="text;html=1;align=center;verticalAlign=middle;resizable=0;points=[];autosize=1;strokeColor=none;fillColor=none;" vertex="1" parent="1">
          <mxGeometry x="1740" y="2520" width="40" height="30" as="geometry" />
        </mxCell>
        <mxCell id="Ziu-hq2vjKG-RK7n9dTh-166" value="VK_Z" style="text;html=1;align=center;verticalAlign=middle;resizable=0;points=[];autosize=1;strokeColor=none;fillColor=none;" vertex="1" parent="1">
          <mxGeometry x="1400" y="2500" width="50" height="30" as="geometry" />
        </mxCell>
        <mxCell id="Ziu-hq2vjKG-RK7n9dTh-167" value="VK_X" style="text;html=1;align=center;verticalAlign=middle;resizable=0;points=[];autosize=1;strokeColor=none;fillColor=none;" vertex="1" parent="1">
          <mxGeometry x="1520" y="2500" width="50" height="30" as="geometry" />
        </mxCell>
        <mxCell id="Ziu-hq2vjKG-RK7n9dTh-168" value="VK_S" style="text;html=1;align=center;verticalAlign=middle;resizable=0;points=[];autosize=1;strokeColor=none;fillColor=none;" vertex="1" parent="1">
          <mxGeometry x="1640" y="2500" width="50" height="30" as="geometry" />
        </mxCell>
        <mxCell id="Ziu-hq2vjKG-RK7n9dTh-169" value="VK_D" style="text;html=1;align=center;verticalAlign=middle;resizable=0;points=[];autosize=1;strokeColor=none;fillColor=none;" vertex="1" parent="1">
          <mxGeometry x="1760" y="2500" width="50" height="30" as="geometry" />
        </mxCell>
        <mxCell id="Ziu-hq2vjKG-RK7n9dTh-170" value="VK_UP" style="text;html=1;align=center;verticalAlign=middle;resizable=0;points=[];autosize=1;strokeColor=none;fillColor=none;" vertex="1" parent="1">
          <mxGeometry x="1870" y="2500" width="60" height="30" as="geometry" />
        </mxCell>
        <mxCell id="Ziu-hq2vjKG-RK7n9dTh-171" value="VK_DOWN" style="text;html=1;align=center;verticalAlign=middle;resizable=0;points=[];autosize=1;strokeColor=none;fillColor=none;" vertex="1" parent="1">
          <mxGeometry x="1970" y="2500" width="80" height="30" as="geometry" />
        </mxCell>
        <mxCell id="Ziu-hq2vjKG-RK7n9dTh-172" value="VK_LEFT" style="text;html=1;align=center;verticalAlign=middle;resizable=0;points=[];autosize=1;strokeColor=none;fillColor=none;" vertex="1" parent="1">
          <mxGeometry x="2090" y="2500" width="80" height="30" as="geometry" />
        </mxCell>
        <mxCell id="Ziu-hq2vjKG-RK7n9dTh-173" value="VK_RIGHT" style="text;html=1;align=center;verticalAlign=middle;resizable=0;points=[];autosize=1;strokeColor=none;fillColor=none;" vertex="1" parent="1">
          <mxGeometry x="2210" y="2500" width="80" height="30" as="geometry" />
        </mxCell>
        <mxCell id="Ziu-hq2vjKG-RK7n9dTh-176" value="Конец&lt;div&gt;Scale&lt;/div&gt;" style="rounded=1;whiteSpace=wrap;html=1;arcSize=50;" vertex="1" parent="1">
          <mxGeometry x="1400" y="2810" width="100" height="30" as="geometry" />
        </mxCell>
        <mxCell id="Ziu-hq2vjKG-RK7n9dTh-177" style="edgeStyle=orthogonalEdgeStyle;rounded=0;orthogonalLoop=1;jettySize=auto;html=1;" edge="1" parent="1" source="Ziu-hq2vjKG-RK7n9dTh-139" target="Ziu-hq2vjKG-RK7n9dTh-176">
          <mxGeometry relative="1" as="geometry" />
        </mxCell>
        <mxCell id="Ziu-hq2vjKG-RK7n9dTh-180" style="edgeStyle=orthogonalEdgeStyle;rounded=0;orthogonalLoop=1;jettySize=auto;html=1;" edge="1" parent="1" source="Ziu-hq2vjKG-RK7n9dTh-178" target="Ziu-hq2vjKG-RK7n9dTh-179">
          <mxGeometry relative="1" as="geometry" />
        </mxCell>
        <mxCell id="Ziu-hq2vjKG-RK7n9dTh-178" value="Начало" style="rounded=1;whiteSpace=wrap;html=1;arcSize=50;" vertex="1" parent="1">
          <mxGeometry x="1400" y="2890" width="160" height="30" as="geometry" />
        </mxCell>
        <mxCell id="Ziu-hq2vjKG-RK7n9dTh-188" style="edgeStyle=orthogonalEdgeStyle;rounded=0;orthogonalLoop=1;jettySize=auto;html=1;" edge="1" parent="1" source="Ziu-hq2vjKG-RK7n9dTh-179">
          <mxGeometry relative="1" as="geometry">
            <mxPoint x="1480" y="3010" as="targetPoint" />
          </mxGeometry>
        </mxCell>
        <mxCell id="Ziu-hq2vjKG-RK7n9dTh-179" value="depth = 1&lt;div&gt;x = 500, y = 150&lt;/div&gt;&lt;div&gt;sx = 1, sy = 1&lt;/div&gt;" style="rounded=0;whiteSpace=wrap;html=1;" vertex="1" parent="1">
          <mxGeometry x="1400" y="2940" width="160" height="50" as="geometry" />
        </mxCell>
        <mxCell id="Ziu-hq2vjKG-RK7n9dTh-182" value="depth, x, y, sx, sy -&amp;nbsp;&lt;div&gt;глобальные переменные&lt;/div&gt;" style="strokeWidth=1;html=1;shape=mxgraph.flowchart.annotation_1;align=left;pointerEvents=1;" vertex="1" parent="1">
          <mxGeometry x="1590" y="2950" width="5" height="30" as="geometry" />
        </mxCell>
        <mxCell id="Ziu-hq2vjKG-RK7n9dTh-183" value="" style="endArrow=none;html=1;rounded=0;entryX=0;entryY=0.5;entryDx=0;entryDy=0;entryPerimeter=0;dashed=1;exitX=1;exitY=0.5;exitDx=0;exitDy=0;" edge="1" parent="1" target="Ziu-hq2vjKG-RK7n9dTh-182">
          <mxGeometry width="50" height="50" relative="1" as="geometry">
            <mxPoint x="1560" y="2965" as="sourcePoint" />
            <mxPoint x="1640" y="2955" as="targetPoint" />
          </mxGeometry>
        </mxCell>
        <mxCell id="Ziu-hq2vjKG-RK7n9dTh-194" style="edgeStyle=orthogonalEdgeStyle;rounded=0;orthogonalLoop=1;jettySize=auto;html=1;" edge="1" parent="1" source="Ziu-hq2vjKG-RK7n9dTh-189" target="Ziu-hq2vjKG-RK7n9dTh-191">
          <mxGeometry relative="1" as="geometry" />
        </mxCell>
        <mxCell id="Ziu-hq2vjKG-RK7n9dTh-189" value="key = код клавиши" style="rounded=0;whiteSpace=wrap;html=1;" vertex="1" parent="1">
          <mxGeometry x="1400" y="3010" width="160" height="30" as="geometry" />
        </mxCell>
        <mxCell id="Ziu-hq2vjKG-RK7n9dTh-190" value="" style="group" vertex="1" connectable="0" parent="1">
          <mxGeometry x="1400" y="3060" width="160" height="30" as="geometry" />
        </mxCell>
        <mxCell id="Ziu-hq2vjKG-RK7n9dTh-191" value="Scale (key)" style="rounded=0;whiteSpace=wrap;html=1;" vertex="1" parent="Ziu-hq2vjKG-RK7n9dTh-190">
          <mxGeometry width="160" height="30" as="geometry" />
        </mxCell>
        <mxCell id="Ziu-hq2vjKG-RK7n9dTh-192" value="" style="endArrow=none;html=1;rounded=0;" edge="1" parent="Ziu-hq2vjKG-RK7n9dTh-190">
          <mxGeometry width="50" height="50" relative="1" as="geometry">
            <mxPoint x="8" as="sourcePoint" />
            <mxPoint x="8" y="30" as="targetPoint" />
          </mxGeometry>
        </mxCell>
        <mxCell id="Ziu-hq2vjKG-RK7n9dTh-193" value="" style="endArrow=none;html=1;rounded=0;" edge="1" parent="Ziu-hq2vjKG-RK7n9dTh-190">
          <mxGeometry width="50" height="50" relative="1" as="geometry">
            <mxPoint x="152" as="sourcePoint" />
            <mxPoint x="152" y="30" as="targetPoint" />
          </mxGeometry>
        </mxCell>
        <mxCell id="Ziu-hq2vjKG-RK7n9dTh-195" value="" style="group" vertex="1" connectable="0" parent="1">
          <mxGeometry x="1400" y="3110" width="160" height="40" as="geometry" />
        </mxCell>
        <mxCell id="Ziu-hq2vjKG-RK7n9dTh-196" value="DrawFractal&lt;div&gt;(x, y, sx, sy, depth)&lt;/div&gt;" style="rounded=0;whiteSpace=wrap;html=1;" vertex="1" parent="Ziu-hq2vjKG-RK7n9dTh-195">
          <mxGeometry width="160" height="40" as="geometry" />
        </mxCell>
        <mxCell id="Ziu-hq2vjKG-RK7n9dTh-197" value="" style="endArrow=none;html=1;rounded=0;" edge="1" parent="Ziu-hq2vjKG-RK7n9dTh-195">
          <mxGeometry width="50" height="50" relative="1" as="geometry">
            <mxPoint x="8" as="sourcePoint" />
            <mxPoint x="8" y="40" as="targetPoint" />
          </mxGeometry>
        </mxCell>
        <mxCell id="Ziu-hq2vjKG-RK7n9dTh-198" value="" style="endArrow=none;html=1;rounded=0;" edge="1" parent="Ziu-hq2vjKG-RK7n9dTh-195">
          <mxGeometry width="50" height="50" relative="1" as="geometry">
            <mxPoint x="152" as="sourcePoint" />
            <mxPoint x="152" y="40" as="targetPoint" />
          </mxGeometry>
        </mxCell>
        <mxCell id="Ziu-hq2vjKG-RK7n9dTh-199" style="edgeStyle=orthogonalEdgeStyle;rounded=0;orthogonalLoop=1;jettySize=auto;html=1;" edge="1" parent="1" source="Ziu-hq2vjKG-RK7n9dTh-191" target="Ziu-hq2vjKG-RK7n9dTh-196">
          <mxGeometry relative="1" as="geometry" />
        </mxCell>
        <mxCell id="Ziu-hq2vjKG-RK7n9dTh-200" value="Конец" style="rounded=1;whiteSpace=wrap;html=1;arcSize=50;" vertex="1" parent="1">
          <mxGeometry x="1400" y="3170" width="160" height="30" as="geometry" />
        </mxCell>
        <mxCell id="Ziu-hq2vjKG-RK7n9dTh-201" style="edgeStyle=orthogonalEdgeStyle;rounded=0;orthogonalLoop=1;jettySize=auto;html=1;" edge="1" parent="1" source="Ziu-hq2vjKG-RK7n9dTh-196" target="Ziu-hq2vjKG-RK7n9dTh-200">
          <mxGeometry relative="1" as="geometry" />
        </mxCell>
      </root>
    </mxGraphModel>
  </diagram>
</mxfile>
